<?xml version="1.0" encoding="UTF-8"?>
<svg width="89px" height="19px" viewBox="0 0 89 19" version="1.1" xmlns="http://www.w3.org/2000/svg" xmlns:xlink="http://www.w3.org/1999/xlink">
    <title>Group</title>
    <g id="Page-1" stroke="none" stroke-width="1" fill="none" fill-rule="evenodd">
        <g id="Tony-portfolio" transform="translate(-19.000000, -21.000000)" fill-rule="nonzero">
            <g id="Group" transform="translate(19.000000, 21.000000)">
                <path d="M25.9317429,13.8062284 L25.9317429,1.31487889 L30.3967276,1.31487889 L30.3967276,0 L20,0 L20,1.31487889 L24.3787048,1.31487889 L24.3787048,13.8062284 L25.9317429,13.8062284 Z M36.0821033,14.0034602 C36.7435825,14.0034602 37.3655168,13.8829296 37.9479061,13.6418685 C38.5302954,13.4008074 39.0371898,13.0465206 39.4685892,12.5790081 C39.8999887,12.1114956 40.2379183,11.5380623 40.482378,10.8587082 C40.7268377,10.1793541 40.8490676,9.40868897 40.8490676,8.5467128 C40.8490676,7.69934641 40.7304327,6.95424837 40.493163,6.31141869 C40.2558933,5.668589 39.9287487,5.12802768 39.5117292,4.68973472 C39.0947097,4.25144175 38.5986003,3.92272203 38.023401,3.70357555 C37.4482017,3.48442907 36.8298624,3.37485582 36.1683832,3.37485582 C35.492524,3.37485582 34.8633997,3.49173395 34.2810104,3.7254902 C33.6986211,3.95924644 33.1917267,4.30622837 32.7603272,4.76643599 C32.3289278,5.2266436 31.9874032,5.79277201 31.7357535,6.46482122 C31.4841038,7.13687043 31.3582789,7.90388312 31.3582789,8.76585928 C31.3582789,9.61322568 31.4805088,10.3619762 31.7249685,11.0121107 C31.9694282,11.6622453 32.3001678,12.2101115 32.7171873,12.6557093 C33.1342068,13.1013072 33.6303162,13.4373318 34.2055155,13.6637832 C34.7807148,13.8902345 35.4062441,14.0034602 36.0821033,14.0034602 Z M36.1468132,12.7981546 C35.7441737,12.7981546 35.3487242,12.7214533 34.9604646,12.5680507 C34.5722051,12.4146482 34.2270855,12.1735871 33.9251059,11.8448674 C33.6231262,11.5161476 33.3822615,11.088812 33.2025117,10.5628604 C33.0227619,10.0369089 32.932887,9.40138408 32.932887,8.65628604 C32.932887,7.911188 33.0227619,7.27931565 33.2025117,6.76066897 C33.3822615,6.2420223 33.6195312,5.82199154 33.9143209,5.5005767 C34.2091105,5.17916186 34.5470401,4.94540561 34.9281097,4.79930796 C35.3091792,4.6532103 35.7010337,4.58016148 36.1036733,4.58016148 C36.5063128,4.58016148 36.8981673,4.65686275 37.2792369,4.81026528 C37.6603064,4.96366782 37.998236,5.20472895 38.2930256,5.53344867 C38.5878153,5.8621684 38.825085,6.2858516 39.0048348,6.80449827 C39.1845846,7.32314494 39.2744595,7.94040754 39.2744595,8.65628604 C39.2744595,9.43060361 39.1881796,10.0807382 39.0156198,10.6066897 C38.84306,11.1326413 38.6093853,11.5599769 38.3145956,11.8886967 C38.019806,12.2174164 37.6854714,12.4511726 37.3115918,12.5899654 C36.9377123,12.7287582 36.5494527,12.7981546 36.1468132,12.7981546 Z M46.1893237,13.8062284 L46.1893237,6.0922722 C46.6063432,5.62475971 47.0736926,5.26316801 47.591372,5.00749712 C48.1090514,4.75182622 48.6195408,4.62399077 49.1228402,4.62399077 C49.9281192,4.62399077 50.5033185,4.8467897 50.8484381,5.29238754 C51.1935577,5.73798539 51.3661175,6.3041138 51.3661175,6.99077278 L51.3661175,6.99077278 L51.3661175,13.8062284 L52.8760157,13.8062284 L52.8760157,6.70588235 C52.8760157,5.65397924 52.5812261,4.83583237 51.9916468,4.25144175 C51.4020675,3.66705113 50.5895984,3.37485582 49.5542397,3.37485582 C48.8352405,3.37485582 48.1989263,3.5136486 47.6452969,3.79123414 C47.0916676,4.06881968 46.5632032,4.44867359 46.0599038,4.93079585 L46.0599038,4.93079585 L45.8226341,3.50634371 L44.6794255,3.50634371 L44.6794255,13.8062284 L46.1893237,13.8062284 Z M57.3966128,19 C58.2737917,18.6639754 59.0251458,18.156286 59.6506751,17.4769319 C60.2762043,16.7975779 60.7974787,15.8662053 61.2144982,14.6828143 L61.2144982,14.6828143 L65.1186636,3.50634371 L63.6087654,3.50634371 L61.4517679,9.88350634 L60.7399588,12.272203 L60.6968188,12.272203 L59.9418697,9.88350634 L57.5476026,3.50634371 L55.9514245,3.50634371 L60.0497196,13.8062284 L59.8555898,14.3979239 C59.5392302,15.3621684 59.1222107,16.0999616 58.6045313,16.6113033 C58.0868519,17.1226451 57.4757027,17.5244137 56.7710835,17.816609 L56.7710835,17.816609 L57.3966128,19 Z M73.0904565,13.8062284 L73.0904565,8.02076125 L77.728001,0 L76.002403,0 L72.3570774,6.53056517 L68.7333217,0 L66.9861538,0 L71.5374184,8.02076125 L71.5374184,13.8062284 L73.0904565,13.8062284 Z M84.2114657,14.0034602 C84.9592248,14.0034602 85.613514,13.8573626 86.1743334,13.5651672 C86.7351527,13.2729719 87.2025021,12.9223376 87.5763817,12.5132641 L87.5763817,12.5132641 L87.6410916,12.5132641 L87.8567914,13.8062284 L89,13.8062284 L89,3.50634371 L87.4901018,3.50634371 L87.4901018,11.2860438 C87.1449822,11.7243368 86.7171777,12.082276 86.2066883,12.3598616 C85.6961989,12.6374471 85.1317846,12.7762399 84.5134453,12.7762399 C84.1827057,12.7762399 83.8771311,12.7360631 83.5967214,12.6557093 C83.3163118,12.5753556 83.0718521,12.4329104 82.8633423,12.2283737 C82.6548326,12.023837 82.4930578,11.7535563 82.3780179,11.4175317 C82.262978,11.0815071 82.2054581,10.6578239 82.2054581,10.1464821 L82.2054581,10.1464821 L82.2054581,3.50634371 L80.6955599,3.50634371 L80.6955599,10.3875433 C80.6955599,11.6147636 81.0191095,12.5242215 81.6662087,13.115917 C82.313308,13.7076125 83.161727,14.0034602 84.2114657,14.0034602 Z" id="TonyYu" fill="#71B7D9"></path>
                <polygon id="X" fill="#232425" points="4.35380531 14 7.87150442 9.15686275 11.3228319 14 15.46 14 9.95115044 6.68627451 15.0175221 0 11.2122124 0 8.00424779 4.47058824 4.90690265 0 0.880353982 0 5.96884956 6.66666667 0.46 14"></polygon>
            </g>
        </g>
    </g>
</svg>